<svg xmlns="http://www.w3.org/2000/svg" xmlns:xlink="http://www.w3.org/1999/xlink" version="1.1" x="0px" y="0px"
	viewBox="0 0 100 125" style="enable-background:new 0 0 100 100;" xml:space="preserve">
	<path
		d="M93.97,65.27l-33.4,22.61c-2.54,1.72-5.51,2.05-8.37,0.93l-10.28-4.03c-2.65-1.04-5.36-0.84-7.82,0.59l-0.91,0.52l-13-22.51  l2.41-1.39l5.41-3.12c1.99-1.15,4.07-1.49,6.33-1.03l29.36,5.97c2.6,0.53,4.41,2.85,4.4,5.42h-0.01c0,0.35-0.03,0.71-0.1,1.06  c-0.6,2.97-3.52,4.9-6.48,4.3L42.96,70.8c-0.71-0.14-1.4,0.32-1.55,1.02l-0.08,0.37c-0.14,0.71,0.32,1.4,1.02,1.55l18.53,3.77  c4.58,0.93,9.08-2.06,10.01-6.63c0.24-1.19,0.22-2.38-0.03-3.5L87.9,56.1c2.52-1.67,5.95-0.97,7.62,1.55  C97.19,60.18,96.49,63.6,93.97,65.27z M14.93,60.26c-0.62-1.07-2.01-1.45-3.07-0.83L4.7,63.57c-1.07,0.62-1.45,2.01-0.83,3.08  l18.32,31.72c0.62,1.07,2.01,1.45,3.08,0.83l7.16-4.13c1.07-0.62,1.44-2.01,0.82-3.08L14.93,60.26z M46.82,1.74  c0-0.68-0.56-1.24-1.24-1.24h-4.02c-0.68,0-1.23,0.56-1.23,1.24v5.23l6.49-3.48V1.74z M62.8,30.42V29h-9.28v16.14h2.69  c-0.09-0.67-0.14-1.36-0.14-2.06C56.07,37.81,58.74,33.17,62.8,30.42z M71.34,27.81c2.5,0,4.86,0.6,6.94,1.67v-7.12l-20.11-10.8  l-20.12,10.8V43.4c0,0.96,0.78,1.74,1.74,1.74h10.55V27.41c0-0.88,0.71-1.59,1.59-1.59H64.4c0.88,0,1.6,0.71,1.6,1.59v1.37  C67.66,28.15,69.46,27.81,71.34,27.81z M35.94,19.86L58.17,7.94l22.23,11.93c1.49,0.8,3.33,0.24,4.13-1.24  c0.79-1.48,0.24-3.33-1.24-4.12L59.61,1.8c-0.95-0.51-2.04-0.47-2.92,0.02L33.05,14.5c-1.48,0.79-2.04,2.64-1.24,4.12  C32.61,20.11,34.46,20.66,35.94,19.86z M59.27,43.08c0-6.65,5.42-12.07,12.07-12.07c6.65,0,12.07,5.43,12.07,12.07  s-5.43,12.07-12.07,12.07C64.69,55.16,59.27,49.73,59.27,43.08z M66.35,40.34c0,1.26,0.61,2.38,1.6,3.17  c0.88,0.7,2.05,1.15,3.33,1.16c0.02,0,0.03,0,0.04,0c0.57,0,1.07,0.18,1.41,0.45c0.25,0.2,0.4,0.45,0.4,0.7  c0,0.25-0.15,0.49-0.4,0.7c-0.35,0.27-0.84,0.45-1.41,0.45c-0.52,0-0.98-0.15-1.32-0.38c-0.27-0.18-0.45-0.41-0.49-0.65  c-0.15-0.86-0.99-1.44-1.85-1.28c-0.86,0.16-1.44,0.99-1.28,1.85c0.2,1.09,0.87,2.04,1.81,2.7c0.45,0.31,0.97,0.56,1.53,0.73v0.97  c0,0.88,0.71,1.6,1.59,1.6c0.88,0,1.6-0.72,1.6-1.6v-0.97c0.68-0.2,1.29-0.52,1.81-0.94c0.99-0.79,1.6-1.91,1.6-3.17  c0-1.26-0.61-2.38-1.6-3.18c-0.87-0.7-2.05-1.14-3.33-1.16c-0.02,0-0.03,0-0.04,0c-0.57,0-1.06-0.18-1.41-0.45  c-0.25-0.2-0.41-0.45-0.41-0.7c0-0.25,0.15-0.49,0.41-0.7c0.35-0.27,0.84-0.45,1.41-0.45c0.52,0,0.98,0.14,1.32,0.38  c0.26,0.18,0.44,0.41,0.49,0.65c0.16,0.87,0.99,1.44,1.85,1.28c0.87-0.16,1.44-0.99,1.28-1.85c-0.2-1.1-0.87-2.04-1.81-2.7  c-0.45-0.32-0.97-0.56-1.53-0.73v-0.97c0-0.88-0.71-1.6-1.59-1.6c-0.88,0-1.59,0.72-1.59,1.6v0.97c-0.68,0.2-1.3,0.52-1.81,0.93  C66.96,37.96,66.35,39.08,66.35,40.34z"
		fill="#dc1f26" />
</svg>