<svg xmlns="http://www.w3.org/2000/svg" xmlns:xlink="http://www.w3.org/1999/xlink" version="1.1" x="0px" y="0px"
    viewBox="0 0 53 66.25" style="enable-background:new 0 0 53 53;" xml:space="preserve" fill="#dc1f26">
    <g>
        <path
            d="M10.4118662,42.817749l-2.2226563-1.2832031c-0.2387695-0.1376953-0.5449219-0.0556641-0.6831055,0.1831055   c-0.1381836,0.2392578-0.0561523,0.5449371,0.1831055,0.6831055L9.9118662,43.68396   c0.2366066,0.136673,0.5433722,0.0581207,0.6831055-0.1831055C10.7331553,43.2615967,10.651124,42.9559326,10.4118662,42.817749z" />
        <path
            d="M50.2521973,13.4417725L34.1120605,4.1322021c-0.15625-0.0893555-0.3466797-0.0898438-0.5009766,0.0004883   C21.0041981,11.4492731,2.2095382,22.3767643,2.795167,22.0374756c-0.1539223,0.0891762-0.2534065,0.2612972-0.2529297,0.4384766   c0.0016074,0.5971317-0.043433,16.5441246-0.0444336,16.637207c-0.0004883,0.1791992,0.0947266,0.3447266,0.25,0.4345703   l2.6855469,1.5507813c0.2382813,0.1367188,0.5439453,0.0561523,0.6831055-0.1831055   c0.1381836-0.2392578,0.0561523-0.5449219-0.1831055-0.6831055l-2.4345703-1.4057617l0.012207-4.3574219l15.1364126,8.7389526   c-0.0002975,0.102684-0.0135365,4.6468506-0.0126953,4.3575439l-5.8366079-3.3699341   c-0.2397461-0.1376953-0.5454102-0.0571289-0.6831055,0.1831055c-0.1381836,0.2392578-0.0561523,0.5449219,0.1831055,0.6831055   l6.5729971,3.795166c0.0045166,0.0028076,0.0063477,0.0083008,0.0109863,0.0109863   c0.1553478,0.0894737,0.3472309,0.0892372,0.5014648-0.0009766c23.4657784-13.6166306,7.3416576-4.2431259,30.8198242-17.909668   c0.1533203-0.0888672,0.2480469-0.2529297,0.2485352-0.4301758c0.0005836-0.1935368,0.0499382-16.8058395,0.050293-16.6533203   C50.5018539,13.7261038,50.4256516,13.542201,50.2521973,13.4417725z M41.2219238,15.2127686l-4.5942383,2.6608887   l-9.5917969-5.5427246l4.5268555-2.6240234c1.2802734,0.6162109,3.0893555,0.6166992,4.3774414-0.0004883l5.3007813,3.0791016   C40.5285416,13.5290995,40.5441208,14.4971972,41.2219238,15.2127686z M49.4866333,19.0890503l-9.6074219,5.5886841   l0.0028687-4.3453369l9.6176758-5.5874023L49.4866333,19.0890503z M39.878418,25.8349609l9.6046753-5.5870972l-0.0135498,4.4804077   l-9.5940552,5.5662231L39.878418,25.8349609z M33.8630371,5.1429443l15.1411133,8.7333984l-9.6209717,5.5895996   l-1.7567139-1.0151367l4.736084-2.7429199c0.1542969-0.0893555,0.2495117-0.2543945,0.2495117-0.4326172   c0-0.1787109-0.0952148-0.3432617-0.2495117-0.4326172c-0.8764992-0.5075016-0.8618546-1.1715574,0.0209961-1.6855469   c0.1538086-0.0893555,0.2485352-0.2543945,0.2485352-0.4321289c0-0.1782227-0.0947266-0.3427734-0.2490234-0.4321289   l-6.1801758-3.5898438c-0.1552734-0.0908203-0.347168-0.0908203-0.5024414,0   c-1.0610352,0.6171875-2.8442383,0.6171875-3.8955078,0.0009766c-0.1552734-0.0913086-0.3476563-0.0917969-0.5039063-0.0014648   l-5.263916,3.0512695l-1.78479-1.0313721L33.8630371,5.1429443z M3.5422373,23.3406982   c1.5529346,0.8960934-5.61553-3.2403412,15.1367178,8.734375l-0.0123291,4.3529663L3.5300303,27.6887207L3.5422373,23.3406982z    M11.8244553,21.1361084l4.5245438-2.6216431l9.593689,5.5408325l-4.4629517,2.5793457   c-1.2802811-0.6088867-3.0883789-0.6088867-4.3745117,0l-5.3012686-3.0708008   c0.3491211-0.362793,0.534668-0.7851563,0.5332031-1.2333984C12.3356943,21.8944092,12.1574717,21.4862061,11.8244553,21.1361084z    M13.5930185,16.9227295l1.7570801,1.0148315l-4.6687012,2.704895c-0.1547852,0.0893555-0.25,0.2548828-0.2495117,0.4335938   s0.0961914,0.34375,0.2509766,0.4326172c0.4150391,0.2382813,0.6533203,0.5385742,0.6542969,0.824707   c0.0009766,0.2954102-0.2456055,0.6083984-0.6767578,0.859375c-0.1538086,0.0893555-0.2485352,0.2543945-0.2485352,0.4326172   s0.0952148,0.3427734,0.2495117,0.4321289l6.1801748,3.5800934c0.1531048,0.0891342,0.3445854,0.0901909,0.4995117,0.0009613   c1.0615234-0.6098633,2.8476563-0.6088867,3.9003906-0.0009613c0.1552734,0.0898285,0.3461914,0.0893402,0.5004883,0.000473   l5.2009277-3.0057983l1.6340942,0.940918l0.1538696,0.0888672l-9.5500488,5.5452881   C-1.5618049,19.2349491,5.5923409,23.3642406,4.0446787,22.4709473L13.5930185,16.9227295z M19.6809082,32.0736084   l9.5426025-5.5409546l0.0296631,4.3198853l-9.585144,5.5703125L19.6809082,32.0736084z M19.6646118,37.5814209l9.5964355-5.5769043   l0.0305176,4.4433594l-9.6401978,5.5991821L19.6646118,37.5814209z M19.6479492,43.204834l9.6514893-5.6057739l0.0297241,4.329895   l-9.6941528,5.635376C19.6385269,46.3794632,19.6484795,43.0262833,19.6479492,43.204834z M3.5142221,33.31604l0.0125732-4.4743042   l15.1365347,8.7393188l-0.0126953,4.4740601L3.5142221,33.31604z M30.3262329,41.3720093   c-0.0314121-4.7312813-0.0551186-8.3021317-0.1043091-15.7109985c0-0.0010376-0.0007935-0.0018311-0.0007935-0.0028687   s0.0007935-0.0019531,0.0007935-0.0029907c0-0.1787109-0.0957031-0.3442383-0.2504883-0.4331055   c-0.1960926-0.1132088-15.9253759-9.1947517-15.3925772-8.887207l8.6713247-5.0336914   c0.1007881,0.0582752,16.63731,9.6207237,15.628479,9.0300293l-0.0102539,16.0769043L30.3262329,41.3720093z    M39.8718262,35.8060303l0.0028687-4.3546753l9.5913696-5.5646362l-0.0131836,4.3504639L39.8718262,35.8060303z" />
        <path
            d="M36.6252441,12.0164795c-1.0834961-0.6254883-2.7792969-0.6264648-3.8579102,0.0009766 c-1.2538662,0.7285156-1.2509899,2.0804701,0.0117188,2.8100586c1.0934563,0.6308765,2.7865677,0.622036,3.8588867-0.0009766   C37.89328,14.096571,37.8854485,12.7446184,36.6252441,12.0164795z M36.135498,13.9622803c-0.7587891,0.4399414-2.09375,0.4399414-2.8564453-0.0009766c-0.5897217-0.3397207-0.5993347-0.7372723-0.0092773-1.0795898   c0.3852539-0.2241211,0.9042969-0.3359375,1.4248047-0.3359375s1.0419922,0.1123047,1.4306641,0.3369141   C36.7116547,13.2206907,36.7282028,13.6172266,36.135498,13.9622803z" />
        <path
            d="M16.416748,24.3358154c1.0838547,0.6253376,2.779274,0.6275349,3.8583984-0.0009766 c1.2528992-0.7269268,1.2509918-2.0810051-0.0117188-2.8095703c-1.0849609-0.6254883-2.7802734-0.6259766-3.8583984,0.0004883   C15.1521511,22.2536983,15.1539717,23.6061878,16.416748,24.3358154z M16.9074707,22.3905029   c0.7748852-0.4507885,2.0835381-0.4453964,2.855957,0.0009766c0.5887718,0.3393612,0.6001625,0.7363052,0.0092773,1.0791016   c-0.7578125,0.4404297-2.0932617,0.4399414-2.855957-0.0009766C16.3255577,23.1284542,16.3193455,22.731699,16.9074707,22.3905029z" />
    </g>
</svg>