<svg xmlns="http://www.w3.org/2000/svg" version="1.1" viewBox="-5.0 -10.0 110.0 135.0">
    <path fill="#ffff"
        d="m94.945 62.68c0.41016 0.34375 0.98438 0.41797 1.4727 0.19531 0.48828-0.22656 0.80078-0.71484 0.80469-1.25v-7.2656c-0.003906-0.40625-0.1875-0.79297-0.5-1.0547l-5.0547-4.2617v-10.152c0.76562 0 1.3867-0.625 1.3867-1.3906s-0.62109-1.3906-1.3867-1.3906h-8.3359c-0.76562 0-1.3867 0.625-1.3867 1.3906s0.62109 1.3906 1.3867 1.3906v3.125l-18.555-15.625c-0.51562-0.42969-1.2617-0.42969-1.7773 0l-13 10.941v-9.6367l3.4453 2.457c0.42578 0.30469 0.98828 0.34375 1.4492 0.097656 0.46484-0.24219 0.75391-0.72656 0.74609-1.25l-0.085937-6.207c-0.007813-0.42969-0.21094-0.82812-0.55469-1.0859l-25.016-18.652c-0.49219-0.37109-1.1719-0.37109-1.6641 0l-11.652 8.6953v-3.418c0.76562 0 1.3867-0.62109 1.3867-1.3867 0-0.76953-0.62109-1.3906-1.3867-1.3906h-8.3359c-0.76562 0-1.3867 0.62109-1.3867 1.3906 0 0.76563 0.62109 1.3867 1.3867 1.3867v9.6406l-5.0117 3.7344c-0.34766 0.26172-0.55078 0.66797-0.55469 1.0977l-0.070313 6.207v0.003906c-0.003906 0.51953 0.28516 1 0.75 1.2383 0.46094 0.24219 1.0195 0.20312 1.4453-0.10156l3.4414-2.457v32.027c0 0.76562 0.625 1.3867 1.3906 1.3867s1.3867-0.62109 1.3867-1.3867v-34.016l18.059-12.887 18.055 12.891v13.891l-16.168 13.703c-0.3125 0.26172-0.49609 0.64844-0.5 1.0547v7.2656c0.003906 0.53516 0.32031 1.0234 0.80469 1.25 0.48828 0.22266 1.0625 0.14844 1.4727-0.19531l3.2773-2.7773v34.543h-25v-30.555c0-0.76953-0.62109-1.3906-1.3867-1.3906s-1.3906 0.62109-1.3906 1.3906v30.555h-4.1641c-0.76953 0-1.3906 0.62109-1.3906 1.3867 0 0.76953 0.62109 1.3906 1.3906 1.3906h91.664c0.76953 0 1.3906-0.62109 1.3906-1.3906 0-0.76562-0.62109-1.3867-1.3906-1.3867h-4.1641v-34.516zm-6.0547-23.789v7.8047l-2.7773-2.332-0.003906-5.4727zm-75-30.559v5.5586l-2.7812 2v-7.5586zm14.469 1.6523-22.805 16.32v-2.7773l23.613-17.625 23.609 17.625v2.7773l-22.805-16.32c-0.48438-0.33984-1.1289-0.33984-1.6133 0zm35.531 19.293 30.555 25.738v3.625l-29.668-25c-0.51562-0.42969-1.2617-0.42969-1.7773 0l-29.668 25v-3.625zm20.832 48.5h-41.668v-2.7773h41.668zm0-5.5547h-41.668v-2.7773h41.668zm-41.668 13.887h25c0.76953 0 1.3906-0.62109 1.3906-1.3867s-0.62109-1.3906-1.3906-1.3906h-25v-2.7773h41.668v2.7773h-12.5c-0.76562 0-1.3906 0.625-1.3906 1.3906s0.625 1.3867 1.3906 1.3867h12.5v2.7773l-41.668 0.003906zm41.668-19.441h-41.668v-2.7773h41.668zm-41.668 25h41.668v2.7773h-41.668zm44.445 2.7773v-31.945c0-0.36719-0.14453-0.72266-0.40625-0.98047-0.26172-0.26172-0.61328-0.41016-0.98438-0.41016h-44.441c-0.76953 0-1.3906 0.625-1.3906 1.3906v31.945h-1.3867v-36.863l25-21.039 25 21.055v36.848zm-23.609-52.777c-11.016 0.34766-11.016 16.32 0 16.668 11.012-0.35156 11.012-16.32 0-16.668zm5.3594 6.9453-3.9727-0.003906v-3.9688c1.9453 0.50781 3.4648 2.0234 3.9727 3.9688zm-6.75-3.9727v3.9688h-3.9727c0.50781-1.9453 2.0273-3.4609 3.9727-3.9688zm-3.9727 6.75h3.9727v3.9727-0.003906c-1.9453-0.50781-3.4648-2.0234-3.9727-3.9688zm6.75 3.9688v-3.9688h3.9727c-0.50781 1.9453-2.0273 3.4609-3.9727 3.9688zm-25-13.691c0.36719 0 0.72266-0.14844 0.98438-0.40625 0.25781-0.26172 0.40625-0.61719 0.40625-0.98438v-13.887c0-0.37109-0.14844-0.72266-0.40625-0.98438-0.26172-0.26172-0.61719-0.40625-0.98438-0.40625h-22.223c-0.76563 0-1.3867 0.62109-1.3867 1.3906v13.887c0 0.36719 0.14453 0.72266 0.40625 0.98438 0.25781 0.25781 0.61328 0.40625 0.98047 0.40625zm-20.832-6.9453h8.332v4.168h-8.332zm11.109 4.168v-4.168h8.332v4.168zm8.332-6.9453h-8.332v-4.168h8.332zm-11.109-4.168v4.168h-8.332v-4.168z" />
</svg>