<svg xmlns="http://www.w3.org/2000/svg" version="1.1" viewBox="-5.0 -10.0 110.0 135.0">
 <g>
  <path d="m80 59.438-14.812 6.7656c0.28125 0.90625 0.4375 1.8438 0.4375 2.8125 0 2.7344-1.2031 5.3125-3.2812 7.0781-2.0312 1.7266-4.9102 2.4766-7.5312 2.0781l-9.75-1.625c-0.85938-0.14062-1.4375-0.95312-1.2969-1.7969 0.14062-0.85938 0.95312-1.4375 1.7969-1.2969l9.7656 1.625c1.7969 0.3125 3.6094-0.20312 5-1.375 1.375-1.1719 2.1719-2.875 2.1719-4.6875 0-2.6094-1.6406-4.9375-4.0938-5.8125l-14.344-5.125c-1.1562-0.40625-2.4219-0.35938-3.5312 0.17188l-13.016 5.5156 9.2188 15.922c0.21875-0.097656 0.47266-0.17969 0.67188-0.3125 1.1719-0.70312 2.5938-0.85938 3.8906-0.42188l13.562 4.5156c0.8125 0.28125 1.6562 0.40625 2.4844 0.40625 1.1875 0 2.375-0.26562 3.4844-0.82812l24.375-12.188c1.5625-0.78125 2.7344-2.1875 3.2188-3.8594s0.25-3.4844-0.64062-4.9844c-1.5938-2.6562-4.8438-3.75-7.7812-2.5781z"/>
  <path d="m23.047 62.266-1.0781-1.875c-0.42188-0.75-1.3906-1-2.125-0.5625l-8.125 4.6875c-0.35938 0.20312-0.625 0.54688-0.73438 0.9375-0.09375 0.40625-0.046875 0.82812 0.15625 1.1875l12.5 21.641c0.28125 0.5 0.8125 0.78125 1.3594 0.78125 0.26562 0 0.53125-0.0625 0.78125-0.20312l8.1094-4.6875c0.35938-0.21875 0.625-0.54688 0.73438-0.95312s0.046875-0.82812-0.15625-1.1875z"/>
  <path d="m84.375 10.938h-46.875c-2.0312 0-3.7656 1.3125-4.4062 3.125h45.031c4.3125 0 7.8125 3.5 7.8125 7.8125v23.156c1.8125-0.64062 3.125-2.375 3.125-4.4062v-25c0-2.5781-2.1094-4.6875-4.6875-4.6875z"/>
  <path d="m31.25 51.562h46.875c2.5859 0 4.6875-2.1016 4.6875-4.6875v-25c0-2.5859-2.1016-4.6875-4.6875-4.6875h-46.875c-2.5859 0-4.6875 2.1016-4.6875 4.6875v25c0 2.5859 2.1016 4.6875 4.6875 4.6875zm39.328-25h-3.3906c-0.86328 0-1.5625-0.69922-1.5625-1.5625s0.69922-1.5625 1.5625-1.5625h4.6875c0.86328 0 1.5625 0.69922 1.5625 1.5625s0.69922 1.5625 1.5625 1.5625 1.5625 0.69922 1.5625 1.5625v12.5c0 0.86328-0.69922 1.5625-1.5625 1.5625s-1.5625 0.69922-1.5625 1.5625-0.69922 1.5625-1.5625 1.5625h-4.6875c-0.86328 0-1.5625-0.69922-1.5625-1.5625s0.69922-1.5625 1.5625-1.5625h3.3906c0.47266-1.3281 1.5273-2.3867 2.8594-2.8555v-9.9102c-1.332-0.47266-2.3867-1.5312-2.8594-2.8594zm-15.066 9.9727-3.0469-1.5234c-1.5195-0.76172-2.4648-2.2891-2.4648-3.9883 0-1.9922 1.3203-3.6602 3.125-4.2344v-1.7891c0-0.86328 0.69922-1.5625 1.5625-1.5625s1.5625 0.69922 1.5625 1.5625v1.5625h1.5625c0.86328 0 1.5625 0.69922 1.5625 1.5625s-0.69922 1.5625-1.5625 1.5625h-3.3516c-0.73438 0-1.3359 0.59766-1.3359 1.3359 0 0.50781 0.28125 0.96484 0.73828 1.1953l3.0469 1.5234c1.5195 0.75781 2.4648 2.2852 2.4648 3.9844 0 1.9922-1.3203 3.6602-3.125 4.2344v1.7891c0 0.86328-0.69922 1.5625-1.5625 1.5625s-1.5625-0.69922-1.5625-1.5625v-1.5625h-1.5625c-0.86328 0-1.5625-0.69922-1.5625-1.5625s0.69922-1.5625 1.5625-1.5625h3.3516c0.73438 0 1.3359-0.59766 1.3359-1.3359 0-0.50781-0.28125-0.96484-0.73828-1.1914zm-22.699-8.4102c0-0.86328 0.69922-1.5625 1.5625-1.5625s1.5625-0.69922 1.5625-1.5625 0.69922-1.5625 1.5625-1.5625h4.6875c0.86328 0 1.5625 0.69922 1.5625 1.5625s-0.69922 1.5625-1.5625 1.5625h-3.3906c-0.47266 1.3281-1.5273 2.3867-2.8594 2.8555v9.9102c1.332 0.47266 2.3867 1.5273 2.8594 2.8555l3.3906 0.003906c0.86328 0 1.5625 0.69922 1.5625 1.5625s-0.69922 1.5625-1.5625 1.5625h-4.6875c-0.86328 0-1.5625-0.69922-1.5625-1.5625s-0.69922-1.5625-1.5625-1.5625-1.5625-0.69922-1.5625-1.5625z"/>
  <path d="m16.082 43.293c0.30469 0.30469 0.70703 0.45703 1.1055 0.45703s0.80078-0.15234 1.1055-0.45703l4.6875-4.6875c0.60938-0.60938 0.60938-1.5977 0-2.2109-0.60938-0.60938-1.5977-0.60938-2.2109 0l-2.0195 2.0195v-11.852c0-0.86328-0.69922-1.5625-1.5625-1.5625s-1.5625 0.69922-1.5625 1.5625v11.852l-2.0195-2.0195c-0.60938-0.60938-1.5977-0.60938-2.2109 0-0.60938 0.60938-0.60938 1.5977 0 2.2109z"/>
 </g>
<text x="0.0" y="117.5" font-size="5.0" font-weight="bold" font-family="Arbeit Regular, Helvetica, Arial-Unicode, Arial, Sans-serif" fill="#000000">Created by suhaiba</text><text x="0.0" y="122.5" font-size="5.0" font-weight="bold" font-family="Arbeit Regular, Helvetica, Arial-Unicode, Arial, Sans-serif" fill="#000000">from Noun Project</text></svg>